<svg  viewBox="0 0 47 46" fill="black" xmlns="http://www.w3.org/2000/svg">
<mask id="mask0_35_46" style="mask-type:alpha" maskUnits="userSpaceOnUse" x="0" y="0" width="47" height="46">
<rect x="0.5" width="46" height="46" fill="#D9D9D9"/>
</mask>
<g mask="url(#mask0_35_46)">
<path d="M11.7125 32.775C13.3417 31.5291 15.1625 30.5469 17.175 29.8281C19.1875 29.1094 21.2959 28.75 23.5 28.75C25.7042 28.75 27.8125 29.1094 29.825 29.8281C31.8375 30.5469 33.6584 31.5291 35.2875 32.775C36.4056 31.4653 37.2761 29.9798 37.899 28.3187C38.5219 26.6576 38.8334 24.8847 38.8334 23C38.8334 18.7514 37.34 15.1337 34.3532 12.1469C31.3664 9.16005 27.7487 7.66665 23.5 7.66665C19.2514 7.66665 15.6337 9.16005 12.6469 12.1469C9.66011 15.1337 8.16671 18.7514 8.16671 23C8.16671 24.8847 8.47817 26.6576 9.10108 28.3187C9.724 29.9798 10.5945 31.4653 11.7125 32.775ZM23.5 24.9166C21.6153 24.9166 20.0261 24.2698 18.7323 22.976C17.4386 21.6823 16.7917 20.093 16.7917 18.2083C16.7917 16.3236 17.4386 14.7344 18.7323 13.4406C20.0261 12.1469 21.6153 11.5 23.5 11.5C25.3848 11.5 26.974 12.1469 28.2677 13.4406C29.5615 14.7344 30.2084 16.3236 30.2084 18.2083C30.2084 20.093 29.5615 21.6823 28.2677 22.976C26.974 24.2698 25.3848 24.9166 23.5 24.9166ZM23.5 42.1666C20.8487 42.1666 18.357 41.6635 16.025 40.6573C13.6931 39.651 11.6646 38.2854 9.93962 36.5604C8.21462 34.8354 6.849 32.8069 5.84275 30.475C4.8365 28.143 4.33337 25.6514 4.33337 23C4.33337 20.3486 4.8365 17.8569 5.84275 15.525C6.849 13.193 8.21462 11.1646 9.93962 9.43956C11.6646 7.71456 13.6931 6.34894 16.025 5.34269C18.357 4.33644 20.8487 3.83331 23.5 3.83331C26.1514 3.83331 28.6431 4.33644 30.975 5.34269C33.307 6.34894 35.3355 7.71456 37.0605 9.43956C38.7855 11.1646 40.1511 13.193 41.1573 15.525C42.1636 17.8569 42.6667 20.3486 42.6667 23C42.6667 25.6514 42.1636 28.143 41.1573 30.475C40.1511 32.8069 38.7855 34.8354 37.0605 36.5604C35.3355 38.2854 33.307 39.651 30.975 40.6573C28.6431 41.6635 26.1514 42.1666 23.5 42.1666ZM23.5 38.3333C25.1931 38.3333 26.7903 38.0857 28.2917 37.5906C29.7931 37.0955 31.1667 36.3847 32.4125 35.4583C31.1667 34.5319 29.7931 33.8212 28.2917 33.326C26.7903 32.8309 25.1931 32.5833 23.5 32.5833C21.807 32.5833 20.2098 32.8309 18.7084 33.326C17.207 33.8212 15.8334 34.5319 14.5875 35.4583C15.8334 36.3847 17.207 37.0955 18.7084 37.5906C20.2098 38.0857 21.807 38.3333 23.5 38.3333ZM23.5 21.0833C24.3306 21.0833 25.0174 20.8118 25.5605 20.2687C26.1035 19.7257 26.375 19.0389 26.375 18.2083C26.375 17.3778 26.1035 16.691 25.5605 16.1479C25.0174 15.6048 24.3306 15.3333 23.5 15.3333C22.6695 15.3333 21.9827 15.6048 21.4396 16.1479C20.8966 16.691 20.625 17.3778 20.625 18.2083C20.625 19.0389 20.8966 19.7257 21.4396 20.2687C21.9827 20.8118 22.6695 21.0833 23.5 21.0833Z" fill=""/>
</g>
</svg>
