<svg viewBox="0 0 46 46" fill="black" xmlns="http://www.w3.org/2000/svg">
<mask id="mask0_35_58" style="mask-type:alpha" maskUnits="userSpaceOnUse" x="0" y="0" width="46" height="46">
<rect width="46" height="46" fill="#D9D9D9"/>
</mask>
<g mask="url(#mask0_35_58)">
<path d="M13.9916 40.25C12.7777 40.25 11.7395 39.8108 10.877 38.9323C10.0145 38.0538 9.58329 37.0076 9.58329 35.7937V18.0167L6.08538 9.58333H1.91663V5.75H8.67288L11.8354 13.4167H40.1541C40.8888 13.4167 41.4479 13.7201 41.8312 14.3271C42.2145 14.934 42.2305 15.5569 41.8791 16.1958L36.4166 26.8813C38.0458 27.1368 39.4114 27.8875 40.5135 29.1333C41.6156 30.3792 42.1666 31.8486 42.1666 33.5417C42.1666 35.3944 41.5198 36.9757 40.226 38.2854C38.9323 39.5951 37.359 40.25 35.5062 40.25C33.6215 40.25 32.0323 39.5951 30.7385 38.2854C29.4448 36.9757 28.7979 35.3944 28.7979 33.5417C28.7979 32.9028 28.8777 32.3118 29.0375 31.7687C29.1972 31.2257 29.4208 30.6986 29.7083 30.1875L23.4312 29.6125L17.6812 38.2375C17.2659 38.8764 16.7309 39.3715 16.076 39.7229C15.4211 40.0743 14.7263 40.25 13.9916 40.25ZM32.2958 26.5938L37.0395 17.25H13.4166L15.8125 23C16.068 23.6389 16.4753 24.174 17.0343 24.6052C17.5934 25.0365 18.2402 25.284 18.975 25.3479L32.2958 26.5938ZM14.0395 36.3687C14.1034 36.3687 14.2472 36.2889 14.4708 36.1292L19.1187 29.2292C17.5534 29.0694 16.3236 28.6941 15.4291 28.1031C14.5347 27.5122 13.8638 26.8972 13.4166 26.2583V35.8417C13.4166 36.0014 13.4805 36.1292 13.6083 36.225C13.7361 36.3208 13.8798 36.3687 14.0395 36.3687ZM35.4583 36.4167C36.2888 36.4167 36.9757 36.1372 37.5187 35.5781C38.0618 35.0191 38.3333 34.3403 38.3333 33.5417C38.3333 32.7111 38.0618 32.0243 37.5187 31.4813C36.9757 30.9382 36.2888 30.6667 35.4583 30.6667C34.6597 30.6667 33.9809 30.9382 33.4218 31.4813C32.8628 32.0243 32.5833 32.7111 32.5833 33.5417C32.5833 34.3403 32.8628 35.0191 33.4218 35.5781C33.9809 36.1372 34.6597 36.4167 35.4583 36.4167Z" fill=""/>
</g>
</svg>
